<mxfile host="Electron" agent="Mozilla/5.0 (Macintosh; Intel Mac OS X 10_15_7) AppleWebKit/537.36 (KHTML, like Gecko) draw.io/27.0.9 Chrome/134.0.6998.205 Electron/35.4.0 Safari/537.36" version="27.0.9">
  <diagram name="Page-1" id="2DHNSXfSdHeheqPKqpJ6">
    <mxGraphModel dx="719" dy="739" grid="1" gridSize="10" guides="1" tooltips="1" connect="1" arrows="1" fold="1" page="1" pageScale="1" pageWidth="850" pageHeight="1100" math="0" shadow="0">
      <root>
        <mxCell id="0" />
        <mxCell id="1" parent="0" />
        <mxCell id="9AzRQlvU3oJx5EgO8rmF-12" value="" style="rounded=0;whiteSpace=wrap;html=1;fillColor=#e6d0de;gradientColor=#d5739d;strokeColor=#996185;" vertex="1" parent="1">
          <mxGeometry x="240" y="240" width="280" height="180" as="geometry" />
        </mxCell>
        <mxCell id="9AzRQlvU3oJx5EgO8rmF-29" value="" style="rounded=0;whiteSpace=wrap;html=1;fillColor=#dae8fc;strokeColor=#6c8ebf;gradientColor=#7ea6e0;" vertex="1" parent="1">
          <mxGeometry x="250" y="270" width="260" height="140" as="geometry" />
        </mxCell>
        <mxCell id="9AzRQlvU3oJx5EgO8rmF-2" value="Csr&lt;sub&gt;1&lt;/sub&gt;&lt;div&gt;&lt;sub&gt;0x100&lt;/sub&gt;&lt;/div&gt;" style="rounded=0;whiteSpace=wrap;html=1;fillColor=#1ba1e2;fontColor=#ffffff;strokeColor=#006EAF;" vertex="1" parent="1">
          <mxGeometry x="270" y="340" width="220" height="60" as="geometry" />
        </mxCell>
        <mxCell id="9AzRQlvU3oJx5EgO8rmF-25" value="Field&lt;sub&gt;1&lt;br&gt;0x101&lt;/sub&gt;" style="rounded=0;whiteSpace=wrap;html=1;fillColor=#d5e8d4;strokeColor=#82b366;gradientColor=#97d077;" vertex="1" parent="1">
          <mxGeometry x="430" y="280" width="60" height="40" as="geometry" />
        </mxCell>
        <mxCell id="9AzRQlvU3oJx5EgO8rmF-27" value="Field&lt;sub&gt;3&lt;/sub&gt;&lt;div&gt;&lt;sub&gt;0x103&lt;/sub&gt;&lt;/div&gt;" style="rounded=0;whiteSpace=wrap;html=1;fillColor=#e6d0de;strokeColor=#996185;gradientColor=#d5739d;" vertex="1" parent="1">
          <mxGeometry x="270" y="280" width="60" height="40" as="geometry" />
        </mxCell>
        <mxCell id="9AzRQlvU3oJx5EgO8rmF-28" value="Peripheral 0x101 ..." style="text;html=1;align=center;verticalAlign=middle;whiteSpace=wrap;rounded=0;" vertex="1" parent="1">
          <mxGeometry x="210" y="240" width="320" height="30" as="geometry" />
        </mxCell>
        <mxCell id="9AzRQlvU3oJx5EgO8rmF-54" value="Field&lt;sub&gt;2&lt;/sub&gt;&lt;div&gt;&lt;sub&gt;0x102&lt;/sub&gt;&lt;/div&gt;" style="rounded=0;whiteSpace=wrap;html=1;fillColor=#f8cecc;strokeColor=#b85450;gradientColor=#ea6b66;" vertex="1" parent="1">
          <mxGeometry x="350" y="280" width="60" height="40" as="geometry" />
        </mxCell>
        <mxCell id="9AzRQlvU3oJx5EgO8rmF-56" value="Field&lt;sub&gt;1&lt;/sub&gt;" style="rounded=0;whiteSpace=wrap;html=1;fillColor=#d5e8d4;gradientColor=#97d077;strokeColor=#82b366;" vertex="1" parent="1">
          <mxGeometry x="420" y="460" width="100" height="40" as="geometry" />
        </mxCell>
        <mxCell id="9AzRQlvU3oJx5EgO8rmF-58" value="Field&lt;sub&gt;2&lt;/sub&gt;" style="rounded=0;whiteSpace=wrap;html=1;fillColor=#f8cecc;gradientColor=#ea6b66;strokeColor=#b85450;" vertex="1" parent="1">
          <mxGeometry x="280" y="460" width="80" height="40" as="geometry" />
        </mxCell>
        <mxCell id="9AzRQlvU3oJx5EgO8rmF-59" value="Field&lt;sub&gt;3&lt;/sub&gt;" style="rounded=0;whiteSpace=wrap;html=1;fillColor=#e6d0de;gradientColor=#d5739d;strokeColor=#996185;" vertex="1" parent="1">
          <mxGeometry x="240" y="460" width="40" height="40" as="geometry" />
        </mxCell>
        <mxCell id="9AzRQlvU3oJx5EgO8rmF-61" value="" style="rounded=0;whiteSpace=wrap;html=1;dashed=1;" vertex="1" parent="1">
          <mxGeometry x="360" y="460" width="60" height="40" as="geometry" />
        </mxCell>
        <mxCell id="9AzRQlvU3oJx5EgO8rmF-62" value="0" style="text;html=1;align=center;verticalAlign=middle;whiteSpace=wrap;rounded=0;" vertex="1" parent="1">
          <mxGeometry x="500" y="500" width="20" height="20" as="geometry" />
        </mxCell>
        <mxCell id="9AzRQlvU3oJx5EgO8rmF-63" value="1" style="text;html=1;align=center;verticalAlign=middle;whiteSpace=wrap;rounded=0;" vertex="1" parent="1">
          <mxGeometry x="480" y="500" width="20" height="20" as="geometry" />
        </mxCell>
        <mxCell id="9AzRQlvU3oJx5EgO8rmF-64" value="2" style="text;html=1;align=center;verticalAlign=middle;whiteSpace=wrap;rounded=0;" vertex="1" parent="1">
          <mxGeometry x="460" y="500" width="20" height="20" as="geometry" />
        </mxCell>
        <mxCell id="9AzRQlvU3oJx5EgO8rmF-65" value="3" style="text;html=1;align=center;verticalAlign=middle;whiteSpace=wrap;rounded=0;" vertex="1" parent="1">
          <mxGeometry x="440" y="500" width="20" height="20" as="geometry" />
        </mxCell>
        <mxCell id="9AzRQlvU3oJx5EgO8rmF-66" value="4" style="text;html=1;align=center;verticalAlign=middle;whiteSpace=wrap;rounded=0;" vertex="1" parent="1">
          <mxGeometry x="420" y="500" width="20" height="20" as="geometry" />
        </mxCell>
        <mxCell id="9AzRQlvU3oJx5EgO8rmF-67" value="8" style="text;html=1;align=center;verticalAlign=middle;whiteSpace=wrap;rounded=0;" vertex="1" parent="1">
          <mxGeometry x="342" y="500" width="20" height="20" as="geometry" />
        </mxCell>
        <mxCell id="9AzRQlvU3oJx5EgO8rmF-68" value="9" style="text;html=1;align=center;verticalAlign=middle;whiteSpace=wrap;rounded=0;" vertex="1" parent="1">
          <mxGeometry x="322" y="500" width="20" height="20" as="geometry" />
        </mxCell>
        <mxCell id="9AzRQlvU3oJx5EgO8rmF-69" value="10" style="text;html=1;align=center;verticalAlign=middle;whiteSpace=wrap;rounded=0;" vertex="1" parent="1">
          <mxGeometry x="302" y="500" width="20" height="20" as="geometry" />
        </mxCell>
        <mxCell id="9AzRQlvU3oJx5EgO8rmF-70" value="11" style="text;html=1;align=center;verticalAlign=middle;whiteSpace=wrap;rounded=0;" vertex="1" parent="1">
          <mxGeometry x="282" y="500" width="20" height="20" as="geometry" />
        </mxCell>
        <mxCell id="9AzRQlvU3oJx5EgO8rmF-71" value="12" style="text;html=1;align=center;verticalAlign=middle;whiteSpace=wrap;rounded=0;fontFamily=Helvetica;fontSize=12;fontColor=default;" vertex="1" parent="1">
          <mxGeometry x="260" y="500" width="20" height="20" as="geometry" />
        </mxCell>
        <mxCell id="9AzRQlvU3oJx5EgO8rmF-72" value="13" style="text;html=1;align=center;verticalAlign=middle;whiteSpace=wrap;rounded=0;fontFamily=Helvetica;fontSize=12;fontColor=default;" vertex="1" parent="1">
          <mxGeometry x="240" y="500" width="20" height="20" as="geometry" />
        </mxCell>
      </root>
    </mxGraphModel>
  </diagram>
</mxfile>
